# xmcd
#
# Track frame offsets:
#	150
#	39339
#	56500
#	104934
#	149260
#
# Disc length: 2699 seconds
#
# Revision: 4
# Processed by: cddbd v1.5.2PL0 Copyright (c) Steve Scherf et al.
# Submitted via: audiograbber 1.83.01
#
DISCID=450a8905
DTITLE=Roy Eldridge - Quadromania - Me and you Blues [CD 4 of)
DYEAR=1960
DGENRE=Jazz
TTITLE0=Mysterious blues
TTITLE1=Wrap your troubles in dreams
TTITLE2=Body and Soul
TTITLE3=Me and your blues
TTITLE4=R and R
EXTD=YEAR: 1960
EXTT0=
EXTT1=
EXTT2=
EXTT3=
EXTT4=
PLAYORDER=
